<svg width="191" height="508" viewBox="0 0 191 508" fill="none" xmlns="http://www.w3.org/2000/svg"><path d="M0 12C0 5.373 5.373 0 12 0h179v508H12c-6.627 0-12-5.373-12-12V12z" fill="url(#paint0_linear_620_5937)"/><mask id="mask0_620_5937" style="mask-type:alpha" maskUnits="userSpaceOnUse" x="0" y="0" width="173" height="508"><rect width="173" height="508" rx="12" fill="url(#paint1_linear_620_5937)"/></mask><g mask="url(#mask0_620_5937)"><path opacity=".1" d="M97 259.735c0 90.432-70.23 163.027-156 163.027s-156-72.595-156-163.027c0-90.431 70.23-163.026 156-163.026S97 169.304 97 259.735z" stroke="url(#paint2_linear_620_5937)" stroke-width="20"/><path opacity=".1" d="M165.07 264.947c0 129.676-100.742 234.017-224.07 234.017-123.328 0-224.07-104.341-224.07-234.017C-283.07 135.272-182.328 30.93-59 30.93c123.328 0 224.07 104.342 224.07 234.017z" stroke="url(#paint3_linear_620_5937)" stroke-width="21.86"/></g><defs><linearGradient id="paint0_linear_620_5937" x1="25.362" y1="11.423" x2="362.969" y2="245.34" gradientUnits="userSpaceOnUse"><stop stop-color="#D6EBDC"/><stop offset="1" stop-color="#E3FFA7"/></linearGradient><linearGradient id="paint1_linear_620_5937" x1="22.972" y1="11.423" x2="347.678" y2="215.199" gradientUnits="userSpaceOnUse"><stop stop-color="#D6EBDC"/><stop offset="1" stop-color="#E3FFA7"/></linearGradient><linearGradient id="paint2_linear_620_5937" x1="18.304" y1="15.463" x2="-237.963" y2="340.262" gradientUnits="userSpaceOnUse"><stop stop-color="#68AE28"/><stop offset="1" stop-color="#68AE28"/></linearGradient><linearGradient id="paint3_linear_620_5937" x1="50.436" y1="-80.861" x2="-312.351" y2="378.945" gradientUnits="userSpaceOnUse"><stop stop-color="#68AE28"/><stop offset="1" stop-color="#68AE28"/></linearGradient></defs></svg>