<svg width="28" height="28" viewBox="0 0 28 28" fill="none" xmlns="http://www.w3.org/2000/svg"><path fill-rule="evenodd" clip-rule="evenodd" d="M17.095 5.218a.041.041 0 01.057-.01l1.278.894a.041.041 0 01.01.058L16.661 8.7a10.89 10.89 0 011.454.575s-1.44 2.477-3.882 2.477c-2.443 0-4.179-2.309-4.179-2.309s.616-.393 1.528-.73L9.631 6.388a.041.041 0 01.005-.058l1.195-1.003a.041.041 0 01.058.005l2.47 2.944c.212-.024.428-.037.645-.037.313 0 .625.024.93.064l2.16-3.085zm.483 6.651c.652-.465 1.638-1.68 1.638-1.68s2.52 1.996 2.52 6.23c0 4.233-4.356 6.781-4.356 6.781s-2.081-2.102-2.592-4.766c-.511-2.664.755-5.623.755-5.623s1.383-.476 2.035-.942zm-7.02 0c-.652-.465-1.639-1.68-1.639-1.68s-2.52 1.996-2.52 6.23c0 4.233 4.357 6.781 4.357 6.781s2.08-2.102 2.592-4.766c.51-2.664-.756-5.623-.756-5.623s-1.383-.476-2.034-.942z" fill="#9BBA48"/></svg>