<svg width="28" height="28" viewBox="0 0 28 28" fill="none" xmlns="http://www.w3.org/2000/svg"><path fill-rule="evenodd" clip-rule="evenodd" d="M14.743 14.16c.122-.074.226-.23.31-.403 1.098.449 1.87 1.51 1.87 2.747 0 1.644-1.362 2.976-3.043 2.976-.69 0-1.326-.224-1.836-.603a7.135 7.135 0 01-.418-.218c-.175-.096-.29-.16-.362-.15-.21.03-.148.222-.093.398.038.119.072.23.018.276-.056.047-.24-.128-.455-.332-.292-.28-.642-.613-.807-.513-.13.08-.004.294.151.557l.012.02c.065.111.14.224.21.328.14.21.254.379.197.407-.068.035-.546-.287-.948-.735-.156-.173-.306-.36-.446-.534-.306-.38-.561-.698-.704-.66-.172.045-.042.4.15.742.089.16.194.322.285.463.142.22.25.386.21.406-.052.028-.515-.424-.83-.994-.187-.338-.344-.712-.471-1.014-.138-.328-.24-.573-.308-.597-.235-.086-.235.393-.14 1.084.011.09.03.185.052.281.914 2.956 3.72 5.108 7.04 5.108 4.061 0 7.353-3.22 7.353-7.192 0-3.78-2.982-6.88-6.77-7.17.004-.178.097-.53.097-.53s.669-1.62.704-1.965l.008-.075c.042-.373.12-1.068-.478-1.068-.32 0-.468.237-.638.509-.065.104-.133.214-.216.316-.593.74-1.59 1.666-2.155 2.158-1.195 1.042-2.368 1.898-3.052 2.397-.31.227-.52.38-.586.443-.49.478-2.245 3.644-2.245 3.644s-.567 1.016-.366 1.222c.202.206.689.159.689.159s6.537-1.5 7.122-1.618c.158-.032.269-.05.354-.064.232-.039.274-.046.535-.205zm-4.622-1.927c-.35.334-.932 1.13-.932 1.13s1.081.067 1.677-.5c.596-.566.46-1.53.46-1.53s-.854.567-1.205.9z" fill="#2C6AC1"/></svg>