<svg width="28" height="28" viewBox="0 0 28 28" fill="none" xmlns="http://www.w3.org/2000/svg"><path fill-rule="evenodd" clip-rule="evenodd" d="M9.21 18.687l2.567-.744 2.216 4.053c.003.005.01.005.014 0l2.216-4.053 2.567.744a.008.008 0 00.01-.01l-.745-2.515 3.941-2.155a.008.008 0 000-.014l-3.974-2.173.777-2.625a.008.008 0 00-.01-.01l-2.626.762-2.156-3.943a.008.008 0 00-.014 0l-2.156 3.943-2.627-.762a.008.008 0 00-.01.01l.778 2.625-3.974 2.173a.008.008 0 000 .014l3.941 2.155-.744 2.516a.008.008 0 00.01.01zm1.992-4.66l1.818.995.994 1.818c.003.005.01.005.014 0l.994-1.818 1.818-.994a.008.008 0 000-.014l-1.818-.994-.994-1.818a.008.008 0 00-.014 0l-.994 1.818-1.818.994a.008.008 0 000 .014z" fill="#E296E1"/></svg>