<svg width="28" height="28" viewBox="0 0 28 28" fill="none" xmlns="http://www.w3.org/2000/svg"><path fill-rule="evenodd" clip-rule="evenodd" d="M8.626 7.33a1.766 1.766 0 013.189-.53h.516a1.765 1.765 0 012.886.533h.431a1.765 1.765 0 012.555.8h1.175c.01 0 .02.003.027.008a1.765 1.765 0 011.928 1.757v5.388c0 .032 0 .065-.002.097-.107 3.67-3.408 6.617-7.464 6.617C9.743 22 6.4 18.956 6.4 15.2c0-1.813.779-3.46 2.048-4.679-.003 1.767.027 3.594.165 3.563.368-.084.08-5.558.013-6.754z" fill="#C44D61"/></svg>