<svg width="28" height="28" viewBox="0 0 28 28" fill="none" xmlns="http://www.w3.org/2000/svg"><path fill-rule="evenodd" clip-rule="evenodd" d="M17.334 19.1c.223-.813-.209-2.485-.209-2.485s-.313 1.363-.802 1.866c-.418.43-.93.727-1.662.805a1.782 1.782 0 001.011-1.6c0-.985-.812-1.784-1.814-1.784-1.003 0-1.815.799-1.815 1.784 0 .269.06.524.169.753-.627-.5-.726-1.3-.726-1.3s-.7 2.906 1.23 4.273c1.928 1.367 5.707.192 5.707.192s-5.408 3.805-9.414-.336c-3.452-3.567-.901-8.263-.901-8.263s-.11.435-.11.941.274.89.274.89.818-1.723 1.454-2.425c.602-.663 1.358-1.201 2.01-1.666.502-.358.943-.672 1.207-.967 1.45-1.623.561-4.578.561-4.578s1.636 1.442 2.093 3.305c.174.71.062 1.517-.038 2.24-.163 1.172-.294 2.12.88 2.058 1.898-.099.249-3.025.249-3.025s4.305 2.263 3.983 6.22c-.322 3.957-4.705 4.857-4.705 4.857s1.146-.941 1.368-1.755z" fill="#F66D6D"/></svg>