<svg width="28" height="28" viewBox="0 0 28 28" fill="none" xmlns="http://www.w3.org/2000/svg"><path fill-rule="evenodd" clip-rule="evenodd" d="M11.585 21.067c2.344 0 4.35-1.303 5.179-3.15.01-.022-3.326.867-3.22.553.048-.14 2.093-.888 3.582-1.759.857-.5 1.251-1.561 1.251-1.561s-1.442.7-2.172.878c-1.47.358-2.763.32-2.763.282 0-.08 2.148-.488 5.134-2.308 1.404-.856 1.786-2.33 1.786-2.33s-1.544.92-2.478 1.223c-2.213.72-4.234.937-4.234.84 0-.209 1.778-.697 3.663-1.61.98-.476 1.829-1.096 2.812-1.786C21.735 9.21 22 7.2 22 7.2s-1.587 1.024-2.362 1.364c-3.196 1.403-6.018 2.138-8.053 2.298C8.513 11.102 6 13.245 6 16.028c0 2.783 2.5 5.039 5.585 5.039z" fill="#A6BBE8"/></svg>