<svg width="28" height="28" viewBox="0 0 28 28" fill="none" xmlns="http://www.w3.org/2000/svg"><path fill-rule="evenodd" clip-rule="evenodd" d="M17.53 21.945c-1.444.073-3.096.073-3.657 0C9.493 21.368 6 18.166 6 13.838 6 9.509 9.582 6 14 6s8 3.509 8 7.838a7.72 7.72 0 01-2.048 5.237c-.346.377.128.64.61.91.473.263.953.53.674.912-.307.42-1.974.959-3.706 1.048zm-4.655-9.087c0 .676-.56 1.224-1.25 1.224s-1.25-.548-1.25-1.224c0-.454.252-.85.626-1.061a1.1 1.1 0 001.101 1.06h.773zm3.874-1.061a1.102 1.102 0 01-1.101 1.06h-.773c0 .677.56 1.225 1.25 1.225s1.25-.548 1.25-1.224c0-.454-.252-.85-.626-1.061z" fill="#616EB7"/></svg>