<svg width="28" height="28" viewBox="0 0 28 28" fill="none" xmlns="http://www.w3.org/2000/svg"><path fill-rule="evenodd" clip-rule="evenodd" d="M19.37 18.295c1.615-1.292 2.63-3.158 2.63-5.234C22 9.16 18.418 6 14 6s-8 3.161-8 7.06c0 2.002.943 3.808 2.458 5.093a3.68 3.68 0 00-.142 1.023c0 1.56.942 2.824 2.105 2.824.756 0 1.418-.534 1.79-1.336C12.58 21.466 13.245 22 14 22c.689 0 1.3-.444 1.684-1.13.384.686.996 1.13 1.684 1.13 1.163 0 2.106-1.265 2.106-2.824 0-.308-.037-.604-.105-.88zm-.738-5.094c0 1.98-2.121 3.585-4.737 3.585S9.158 15.18 9.158 13.2s2.12-3.585 4.737-3.585c2.616 0 4.737 1.605 4.737 3.585z" fill="#AC6ACA"/></svg>