<svg width="28" height="28" viewBox="0 0 28 28" fill="none" xmlns="http://www.w3.org/2000/svg"><path fill-rule="evenodd" clip-rule="evenodd" d="M20.087 19.288s-2.018 1.619-6.033.949c-3.047-.508-4.671-3.866-4.671-5.671 0-4.28 3.167-5.254 5.308-5.254 2.142 0 3.539 2.088 3.539 3.705 0 1.616-1.143 3.03-2.923 3.03-1.779 0-2.306-1.25-2.306-2.398 0-1.148.93-1.552 1.777-1.552.847 0 1.137.723 1.137 1.345 0 .621-.482.844-.885.844-.402 0-.442-.203-.596-.416-.154-.213.197-1.02-.38-1.02s-.685.927-.685.927.21 1.792 1.938 1.761c1.728-.03 2.548-1.367 2.31-2.689-.239-1.322-1.522-2.728-3.775-2.444-2.252.284-3.172 2.56-2.767 4.992.406 2.433 3.32 3.842 5.61 3.335 2.292-.507 4.574-2.166 4.574-6.37 0-4.206-3.642-6.734-7.985-6.317-4.343.416-7.039 4.213-6.866 8.775.172 4.562 4.501 7.046 8.161 7.174 3.66.128 5.905-1.99 5.905-1.99s.504-.45.306-.802c-.197-.351-.694.086-.694.086z" fill="#EB8B85"/></svg>