<svg width="28" height="28" viewBox="0 0 28 28" fill="none" xmlns="http://www.w3.org/2000/svg"><path fill-rule="evenodd" clip-rule="evenodd" d="M19.442 13.436a.008.008 0 01-.001-.005l1.273-7.425c0-.003.004-.006.007-.006h.403c.003 0 .006.002.007.005L24 15.088c0 .003 0 .006-.003.008l-2.115 1.651a.007.007 0 01-.01-.001l-2.43-3.31zM4 18.358c0 .003.002.006.005.007l4.36 1.426.006-.001 9.746-6.729a.007.007 0 00.003-.005l1.045-7.012a.007.007 0 00-.007-.008h-8.632c-.002 0-.004 0-.006.002l-6.518 7.864a.007.007 0 00-.002.005v4.451zm6.182 1.796l4.763 1.56h.006l5.672-4.069a.007.007 0 00.001-.01l-2.126-3.163a.007.007 0 00-.01-.002l-8.306 5.684z" fill="#8BCEC1"/></svg>