<svg width="1920" height="706" viewBox="0 0 1920 706" fill="none" xmlns="http://www.w3.org/2000/svg"><mask id="mask0_2739_5981" style="mask-type:alpha" maskUnits="userSpaceOnUse" x="0" y="0" width="1920" height="706"><path fill="#C20001" d="M0 0h1920v706H0z"/></mask><g mask="url(#mask0_2739_5981)"><path fill="#3F67BA" d="M0 0h1920v706H0z"/><path fill="url(#paint0_radial_2739_5981)" d="M0 0h1920v706H0z"/><circle opacity=".5" cx="960" cy="622" r="192" stroke="url(#paint1_linear_2739_5981)" stroke-width="24"/><circle opacity=".3" cx="960" cy="622" r="246" stroke="url(#paint2_linear_2739_5981)" stroke-width="24"/><circle opacity=".1" cx="960" cy="622" r="301" stroke="url(#paint3_linear_2739_5981)" stroke-width="24"/><path d="M1515.11 522.384c.36-.219.67-.678.92-1.188 3.28 1.322 5.58 4.446 5.58 8.088 0 4.84-4.06 8.763-9.08 8.763-2.06 0-3.96-.661-5.48-1.775-.5-.234-.92-.458-1.25-.642-.52-.284-.87-.471-1.08-.442-.63.086-.45.654-.28 1.171.11.35.22.677.05.812-.16.141-.71-.375-1.35-.978-.88-.821-1.92-1.802-2.41-1.507-.39.233-.02.865.45 1.64l.03.057c.2.327.42.661.63.965.42.618.76 1.116.59 1.2-.21.102-1.63-.847-2.83-2.165-.47-.508-.92-1.06-1.33-1.572-.92-1.122-1.68-2.056-2.11-1.945-.51.133-.12 1.179.45 2.185.27.471.58.95.85 1.365.43.646.75 1.135.63 1.196-.16.081-1.54-1.25-2.48-2.926-.56-.996-1.03-2.097-1.41-2.988-.41-.966-.71-1.686-.92-1.758-.7-.252-.7 1.158-.42 3.193.04.265.1.544.16.827 2.73 8.703 11.11 15.04 21.02 15.04 12.13 0 21.96-9.481 21.96-21.176 0-11.131-8.9-20.256-20.22-21.111.02-.524.29-1.564.29-1.564s2-4.765 2.11-5.784c0-.067.01-.141.02-.219.12-1.1.36-3.146-1.43-3.146-.95 0-1.4.699-1.9 1.499-.2.307-.4.629-.65.931-1.77 2.181-4.74 4.904-6.43 6.355-3.57 3.066-7.07 5.586-9.11 7.056-.93.668-1.56 1.119-1.75 1.306-1.47 1.405-6.71 10.728-6.71 10.728s-1.69 2.991-1.09 3.598c.6.607 2.05.468 2.05.468s19.52-4.416 21.27-4.764c.47-.094.8-.148 1.06-.19.69-.112.82-.133 1.6-.603zm-13.8-5.674c-1.05.982-2.79 3.326-2.79 3.326s3.23.196 5.01-1.471c1.78-1.667 1.37-4.508 1.37-4.508s-2.55 1.671-3.59 2.653zM606.447 331.055c-.01-.027.011-.055.04-.055h17.454c.018 0 .035.012.04.029l8.017 25.102c.009.027-.012.054-.041.054h-11.619c-.014 0-.025.013-.021.026l6.664 22.736c.013.044-.046.073-.075.036l-25.897-33.378c-.022-.027-.001-.066.034-.066h10.545a.02.02 0 00.02-.028l-5.161-14.456zm857.113-101.581c.69-2.485-.66-7.593-.66-7.593s-.97 4.161-2.49 5.699c-1.3 1.312-2.9 2.222-5.18 2.461 1.87-.889 3.15-2.745 3.15-4.89 0-3.01-2.53-5.451-5.65-5.451-3.12 0-5.65 2.441-5.65 5.451 0 .823.19 1.602.53 2.302-1.96-1.527-2.26-3.973-2.26-3.973s-2.18 8.88 3.82 13.058c6.01 4.177 17.78.587 17.78.587s-16.84 11.625-29.32-1.028c-10.75-10.899-2.8-25.249-2.8-25.249s-.35 1.331-.35 2.876c0 1.546.86 2.721.86 2.721s2.54-5.267 4.53-7.41c1.87-2.027 4.22-3.672 6.25-5.092 1.57-1.093 2.94-2.054 3.76-2.954 4.52-4.958 1.75-13.989 1.75-13.989s5.09 4.406 6.52 10.097c.54 2.17.19 4.638-.12 6.845-.51 3.583-.92 6.479 2.74 6.291 5.91-.304.77-9.244.77-9.244s13.41 6.913 12.41 19.005c-1.01 12.092-14.66 14.841-14.66 14.841s3.57-2.876 4.27-5.361zM526.427 511.848c-4.059.203-8.706.203-10.285 0C503.824 510.263 494 501.457 494 489.553 494 477.65 504.074 468 516.5 468s22.5 9.65 22.5 21.553c0 5.536-2.179 10.585-5.76 14.402-.973 1.037.361 1.764 1.717 2.502 1.33.725 2.68 1.461 1.895 2.51-.864 1.157-5.552 2.637-10.425 2.881zm-13.091-24.989c0 1.86-1.574 3.368-3.516 3.368-1.941 0-3.515-1.508-3.515-3.368 0-1.247.708-2.336 1.76-2.918.06 1.621 1.424 2.918 3.097 2.918h2.174zm10.896-2.918c-.06 1.621-1.424 2.918-3.097 2.918h-2.174c0 1.86 1.574 3.368 3.516 3.368 1.941 0 3.515-1.508 3.515-3.368 0-1.247-.708-2.336-1.76-2.918zm806.988-42.069c-.17-.161-.34-.325-.51-.492a22.381 22.381 0 010-31.963c8.94-8.827 37.45-9.417 37.45-9.417s3.89 32.554-5.06 41.38c-7.94 7.839-20.27 8.716-29.2 2.631l7.2-8.708 11.49-2.449-9.38-.926 5.96-5.992 6.79-1.467-5.37-1.569 5.37-9.556-7.63 8.451-2.95-4.105 1.03 6.779-5.31 5.916-2.47-7.485v9.954l-7.41 9.018zm256.25-106.16L1573.92 329l.41 15.003 12.8 6.337.34-14.628zm15.05 8.473l-.17-15.123-13.18 7.176.16 14.28 13.19-6.333zm-.01 16.177l13.06-7.469-13.06-6.871-13.06 6.859 13.06 7.481zm-15.39-7.469l-13.05 7.469-13.07-7.481 13.06-6.859 13.06 6.871zm15.6 23.664l-13.56-6.713.35-14.628 12.8 6.338.41 15.003zm-28.51-14.988l.18 15.124 13.18-7.176-.16-14.28-13.2 6.332zM460 345.548c0 9.639-7.835 17.452-17.5 17.452s-17.5-7.813-17.5-17.452c0-9.374 16.553-35.119 17.461-36.524.021-.032.057-.032.078 0 .908 1.405 17.461 27.15 17.461 36.524zm-20.417 11.857c-8.881-1.945-7.361-11.792-7.361-11.792s2.425 5.944 8.31 7.87c5.884 1.925 12.996-.899 12.996-.899s-5.065 6.766-13.945 4.821zM629.754 103c7.032 0 13.052-3.945 15.537-9.539.03-.068-9.978 2.626-9.659 1.674.143-.425 6.278-2.688 10.748-5.327 2.569-1.517 3.752-4.729 3.752-4.729s-4.329 2.122-6.517 2.66c-4.409 1.085-8.29.968-8.29.855 0-.244 6.445-1.48 15.402-6.992 4.214-2.592 5.358-7.057 5.358-7.057s-4.632 2.786-7.432 3.705c-6.641 2.181-12.702 2.839-12.702 2.544 0-.632 5.334-2.113 10.988-4.88 2.94-1.437 5.486-3.316 8.437-5.406C660.204 67.089 661 61 661 61s-4.762 3.1-7.086 4.13c-9.588 4.25-18.055 6.478-24.16 6.961-9.215.728-16.754 7.22-16.754 15.648S620.501 103 629.754 103z" opacity=".1" fill-rule="evenodd" clip-rule="evenodd" fill="#fff"/></g><defs><linearGradient id="paint1_linear_2739_5981" x1="1055" y1="334" x2="756" y2="729" gradientUnits="userSpaceOnUse"><stop stop-color="#6F96E8"/><stop offset="1" stop-color="#6F96E8" stop-opacity="0"/></linearGradient><linearGradient id="paint2_linear_2739_5981" x1="1080.15" y1="257.765" x2="702" y2="757.324" gradientUnits="userSpaceOnUse"><stop stop-color="#6F96E8"/><stop offset="1" stop-color="#6F96E8" stop-opacity="0"/></linearGradient><linearGradient id="paint3_linear_2739_5981" x1="1105.76" y1="180.118" x2="647" y2="786.172" gradientUnits="userSpaceOnUse"><stop stop-color="#6F96E8"/><stop offset="1" stop-color="#6F96E8" stop-opacity="0"/></linearGradient><radialGradient id="paint0_radial_2739_5981" cx="0" cy="0" r="1" gradientUnits="userSpaceOnUse" gradientTransform="matrix(0 -653.05 1776 0 1058 781.564)"><stop stop-color="#05276D"/><stop offset="1" stop-color="#4C83F5" stop-opacity="0"/></radialGradient></defs></svg>