<svg width="142" height="140" viewBox="0 0 142 140" fill="none" xmlns="http://www.w3.org/2000/svg"><path d="M94.567 30.069L19.29 88.034c-.776.085-1.929-.107-3.458-.579a20.468 20.468 0 01-5.463-2.668c-4.913-3.344-7.886-8.145-8.92-14.403-1.013-6.001-.087-12.442 2.78-19.322.947-2.272 2.11-4.619 3.49-7.04l2.52-4.212c2.048-3.622 3.74-7.202 5.075-10.738 2.22-5.915 2.823-10.288 1.81-13.117l1.035.129c.775.15 1.4.428 1.874.835-.064-.685-.248-1.489-.55-2.41-.624-1.887-1.518-3.473-2.682-4.759l3.49-.482c2.953.021 5.948.857 8.986 2.508l-.226-1.768c-.086-1.2.032-1.865.356-1.994.495-.193 1.206.279 2.133 1.415.021-.943.226-2.015.614-3.215.754-2.358 2.025-4.137 3.814-5.337l1.777 3.247c1.66 2.336 3.685 3.955 6.077 4.855 2.09.814 6.83 1.436 14.221 1.864 7.154.429 12.197 1.308 15.127 2.637l3.103.257c2.52.321 4.848.91 6.981 1.768 6.874 2.765 10.645 7.62 11.313 14.564z" fill="#68AE28"/><path d="M3.679 76.685c-4.87-9.13-3.706-19.622 3.49-31.474-3.64 9.58-2.413 17.243 3.685 22.987 2.65 2.486 5.99 4.308 10.02 5.465 3.943 1.115 8.123 1.479 12.54 1.093l-15.06 13.535c-2.198-.193-4.644-1.254-7.337-3.183a24.918 24.918 0 01-7.337-8.423z" fill="#56931F"/><path d="M124.108 25.825c1.918.836 3.588 3.676 5.01 8.52 1.272 4.393 1.703 7.5 1.293 9.323 2.543 2.936 5.021 8.67 7.434 17.2 2.737 9.559 3.2 16.514 1.39 20.864-.582 1.394-2.284 3.29-5.107 5.69-2.93 2.53-5.828 4.48-8.694 5.852l1.454 2.347a51.244 51.244 0 013.135 6.655c2.952 7.673 4.181 15.624 3.685 23.855-.151 2.614-2.327 4.758-6.529 6.429-4.116 1.608-8.501 2.144-13.155 1.608-1.573-.214-3.652-2.047-6.238-5.498-2.952-4.008-4.708-8.166-5.268-12.474-3.944 2.272-7.273 3.805-9.988 4.598l-.84 1.414a18.402 18.402 0 01-2.586 3.215c-3.124 3.172-6.82 4.941-11.086 5.305-4.245.364-7.542.032-9.89-.997-.733-.321-1.336-.696-1.81-1.125l-.453-.546-25.825.868-2.65 2.314c-2.37 1.565-5.107 2.39-8.21 2.476-4.245.128-7.585-.257-10.02-1.158-3.06-1.157-5.236-3.268-6.529-6.333-1.874-4.415-2.865-9.473-2.973-15.174-.151-7.416 1.519-13.482 5.01-18.197 3.361-4.544 7.746-9.173 13.155-13.888 1.508-1.308 5.613-4.63 12.314-9.967 3.426-2.7 6.475-5.315 9.147-7.844 2.715-2.572 4.364-4.415 4.945-5.53a163.089 163.089 0 012.457-12.988c2.047-8.788 4.03-13.481 5.947-14.082 1.918-.578 4.74.033 8.468 1.833 1.853.922 3.512 1.886 4.978 2.893l2.198-.771c1.939-.579 4.061-1.072 6.367-1.479 7.37-1.265 15.191-1.34 23.465-.225 1.25-1.329 4.008-2.615 8.275-3.858 4.115-1.2 6.69-1.575 7.724-1.125z" fill="#7CBEB3"/><path d="M129.959 38.62l.646 5.048-3.329-4.919c.345-1.436.496-3.376.453-5.82l-.194-3.214c.991 2.122 1.799 5.09 2.424 8.905zm-74.016 5.69c1.745-7.972 3.458-12.58 5.139-13.824-.41 4.63-.55 9.206-.42 13.728.086 2.658.366 6.709.84 12.153.28 3.236-.054 6.108-1.002 8.616-.84 2.186-1.94 3.675-3.297 4.468-1.336.772-2.435.6-3.297-.514-.926-1.222-1.239-3.322-.937-6.301.603-5.937 1.595-12.046 2.974-18.325zm58.34 81.724c1.66 3.086 3.642 5.015 5.948 5.787l-1.229 2.443c-3.253.643-6.13-.203-8.63-2.539-2.995-2.851-5.645-8.027-7.951-15.529-3.727 2.251-7.865 3.933-12.411 5.048-4.482 1.114-9.869 1.79-16.161 2.025-.991.322-1.713 1.008-2.166 2.058-.452 1.007-.463 1.918-.032 2.733l-1.81 2.121-3.878-2.347c.107-.728.71-2.904 1.81-6.526 1.077-3.472 1.756-6.483 2.036-9.034.819-7.63-1.315-14.531-6.4-20.704 4.525 4.522 12.455 7.362 23.789 8.52 12.11 1.221 22.399.128 30.867-3.28-2.715 1.736-4.654 4.437-5.818 8.102-1.034 3.301-1.347 6.955-.937 10.963.409 3.858 1.4 7.244 2.973 10.159zM9.335 107.581c.926 7.522 5.063 12.356 12.411 14.499 2.823.814 5.797 1.114 8.92.9 2.845-.193 5.183-.75 7.015-1.672l2.36 7.909c-1.681 1.629-3.944 2.904-6.788 3.826-5.689 1.843-11.41 1.039-17.163-2.411-2.78-1.672-4.773-5.916-5.98-12.732a62.22 62.22 0 01-.775-6.976c-.108-1.972-.108-3.086 0-3.343z" fill="#68A198"/><path d="M78.535 55.177c.84-.15 1.735-.01 2.683.418-3.254 2.486-4.956 6.301-5.107 11.445-.15 4.694.927 9.099 3.232 13.214-4.525-.493-7.714-1.522-9.567-3.087-.538-.471-.765-1.79-.679-3.954.087-2.25.485-4.608 1.196-7.073 1.853-6.558 4.6-10.213 8.242-10.963z" fill="#fff"/><path d="M89.719 67.426c1.012 2.7 1.637 5.133 1.874 7.298.259 2.315 0 3.858-.776 4.63-.517.514-1.907.868-4.17 1.06-2.305.172-4.74.118-7.304-.16-2.305-4.116-3.383-8.52-3.232-13.214.15-5.144 1.853-8.959 5.107-11.445 3.21 1.479 6.044 5.423 8.5 11.831zm37.848-13.856c2.694 2.186 4.299 5.455 4.816 9.805.323 2.722.194 6.548-.388 11.478-.948.364-1.864.61-2.747.739-.905.15-1.584.15-2.036 0-1.272-.407-1.907-3.644-1.907-9.709-.022-6.194.732-10.298 2.262-12.313z" fill="#D60040"/><path d="M127.567 53.57c.388-.536.798-.847 1.229-.933 2.09-.45 4.115 2.09 6.076 7.62 1.918 5.487 2.295 9.409 1.131 11.766-.538 1.115-1.874 2.058-4.008 2.83.582-4.93.712-8.756.388-11.478-.517-4.35-2.122-7.62-4.816-9.805z" fill="#fff"/><path d="M108.594 50.29c-.625.236-2.252-.417-4.88-1.96-2.759-1.587-4.084-2.883-3.976-3.89.15-1.33 2.381-3.162 6.691-5.498 4.374-2.358 7.283-3.226 8.726-2.604.927.386.442 2.657-1.454 6.815-1.918 4.18-3.62 6.559-5.107 7.138zm-14.382 2.765c-.065-.278.258-.803.97-1.575.732-.793 1.39-1.264 1.971-1.414l.711.996c.603 1.008 1.207 2.422 1.81 4.244l-.42.997c-.41.728-.916 1.232-1.52 1.51l-1.55-1.478c-1.078-1.18-1.735-2.272-1.972-3.28zm24.984 7.009c.668 3.793.722 5.915.162 6.365-.496.408-2.004.247-4.525-.482-2.543-.729-3.987-1.436-4.332-2.122.108-1.586.927-3.568 2.457-5.947 1.573-2.38 2.844-3.569 3.814-3.569.948 0 1.756 1.918 2.424 5.755zm1.939 55.907c-.086-1.221.668-2.968 2.263-5.24 1.551-2.229 2.671-3.301 3.361-3.215 1.034.107 1.745 2.261 2.133 6.462.367 4.222.033 6.505-1.002 6.848-1.142.386-2.51.171-4.105-.643-1.831-.964-2.715-2.368-2.65-4.212zM18.676 97.903l5.333.225c2.392.472 3.77.997 4.137 1.576.604.964.205 3-1.196 6.108-1.379 3.087-2.542 4.673-3.49 4.758-.82.065-2.479-.75-4.978-2.443-2.521-1.693-3.77-2.872-3.75-3.536.022-.858.442-2.079 1.261-3.665.905-1.78 1.8-2.787 2.683-3.023zm30.738-27.551c.56.964-.345 3.643-2.715 8.037-2.37 4.394-4.191 6.73-5.462 7.008-1.164.28-3.06-.225-5.69-1.51-2.477-1.18-4.125-2.262-4.944-3.248-.259-.321-.087-1.264.517-2.829l.97-2.282 4.33-3.408c2.931-2.294 4.569-3.483 4.913-3.569l4.04.354c2.37.407 3.718.89 4.04 1.447z" fill="#006359"/><path d="M82.22 58.842c.69 0 1.293.675 1.81 2.026.517 1.436.765 3.225.743 5.369-.043 2.036-.323 3.643-.84 4.822-.474 1.072-1.056 1.607-1.745 1.607-.647 0-1.207-.578-1.681-1.736-.517-1.221-.797-2.765-.84-4.63-.087-2.25.15-4.082.71-5.497.496-1.307 1.11-1.96 1.843-1.96zm43.828.708l.647-2.894c.258-.343.506-.504.743-.482.388.021.754.44 1.099 1.254.496 1.093.765 2.636.808 4.63.022 1.885-.151 3.353-.517 4.404-.345.943-.776 1.414-1.293 1.414-.323 0-.646-.236-.97-.707-.344-.514-.581-1.19-.711-2.026-.258-1.478-.194-3.343.194-5.593z" fill="#fff"/><path d="M112.279 32.287a77.262 77.262 0 00-17.938-1.318c-6.508.257-12.487 1.307-17.939 3.15-.194.065-.463-.15-.808-.642-.366-.493-.452-.783-.258-.869 6.184-2.078 12.885-3.193 20.104-3.343 6.335-.15 12.12.44 17.356 1.768 2.672.686 3.943 1.19 3.814 1.511l-4.331-.257zm17.454 8.97c4.374 6.3 7.563 13.61 9.567 21.925 1.745 7.245 2.176 12.85 1.293 16.814-.97 4.394-5.797 8.895-14.48 13.503-8.619 4.587-16.948 7.127-24.985 7.62-8.597.514-16.689-.193-24.273-2.122-7.585-1.93-12.477-4.533-14.674-7.813-.712-1.071-.938-1.725-.68-1.96.281-.237.917.181 1.908 1.253 2.909 3.172 8.091 5.594 15.547 7.266 7.089 1.586 14.49 2.143 22.204 1.672 8.059-.493 16.194-3.012 24.403-7.556 7.887-4.372 12.261-8.508 13.123-12.41.905-4.05.528-9.515-1.131-16.395-1.854-7.695-4.816-14.617-8.889-20.769-1.681-2.55-2.338-3.965-1.972-4.243.345-.279 1.358.793 3.039 3.215zM54.844 55.98c-1.422 2.659-4.299 5.82-8.63 9.485-2.586 2.165-6.938 5.594-13.058 10.288-5.58 4.415-9.89 8.305-12.929 11.67-4.18 4.63-6.96 9.184-8.339 13.663-1.659 5.38-1.745 11.424-.258 18.133 1.379 6.322 3.34 10.223 5.882 11.702 2.737 1.586 6.422 2.282 11.054 2.09 4.784-.193 8.091-1.308 9.923-3.344 2.823-3.151 3.922-8.252 3.297-15.303-.647-7.201-2.845-12.945-6.594-17.232-1.465-1.693-2.09-2.722-1.874-3.086.215-.365 1.13.31 2.747 2.025 4.719 5.037 7.348 11.199 7.886 18.486.496 6.923-.959 12.281-4.363 16.075-2.047 2.293-5.732 3.579-11.054 3.857-5.15.279-9.233-.46-12.25-2.218-3.06-1.779-5.3-5.98-6.723-12.602-1.443-6.816-1.303-13.117.42-18.904 1.315-4.373 3.911-8.755 7.79-13.15 2.823-3.214 6.906-6.976 12.25-11.284l13.252-10.673c4.783-4.094 8.35-7.855 10.698-11.285.108-.15.302.033.582.547.302.536.399.89.29 1.06z" fill="#0D131A"/><path d="M62.763 27.593c1.336-.428 3.587 0 6.755 1.286 3.189 1.307 5.807 2.904 7.854 4.79 1.616 1.5 2.24 2.347 1.875 2.54-.345.214-1.336-.31-2.974-1.575-2.112-1.586-4.557-2.926-7.337-4.019-2.715-1.093-4.536-1.479-5.462-1.157-1.509.493-3.254 4.297-5.236 11.413-2.09 7.523-3.448 15.41-4.073 23.662-.172 2.379-.474 3.472-.905 3.279-.452-.193-.636-1.318-.55-3.376.28-7.137 1.358-14.606 3.233-22.408 2.133-8.83 4.406-13.642 6.82-14.435zm44.313 2.765c1.874-1.415 4.751-2.765 8.63-4.05 4.374-1.458 7.412-1.801 9.114-1.03 1.681.75 3.211 3.269 4.59 7.556 1.271 3.986 1.982 7.994 2.133 12.023 0 .193-.269-.01-.808-.61-.56-.6-.84-1.008-.84-1.222-.13-3.258-.884-6.687-2.263-10.288-1.314-3.43-2.532-5.401-3.652-5.915-1.056-.472-3.469-.172-7.24.9-3.814 1.071-6.529 2.218-8.145 3.44-.151.128-.485.064-1.002-.193-.496-.279-.668-.482-.517-.611z" fill="#0D131A"/><path d="M108.271 49.39c1.056-.021 2.532-2.025 4.428-6.012 1.875-3.922 2.575-6 2.101-6.237-1.056-.535-3.674.247-7.854 2.347-4.202 2.1-6.313 3.719-6.335 4.855-.021.707.905 1.704 2.78 2.99 1.917 1.286 3.544 1.972 4.88 2.057zm-2.585-10.77c4.589-2.464 7.864-3.515 9.825-3.15.668.128.862 1.007.582 2.636-.258 1.5-.84 3.258-1.745 5.272-2.263 5.016-4.288 7.48-6.077 7.395-1.422-.086-3.318-.9-5.688-2.444-2.478-1.607-3.717-2.968-3.717-4.083 0-1.307 2.273-3.182 6.82-5.626zm-6.659 16.879c.065-.172-.172-.965-.71-2.38-.54-1.435-.927-2.164-1.164-2.185-.194-.022-.625.267-1.293.867-.668.6-1.002 1.05-1.002 1.35.021.28.474 1.008 1.357 2.187.884 1.136 1.401 1.704 1.552 1.704.13 0 .355-.215.679-.643l.581-.9zm.065-3.376c.668 1.586 1.013 2.668 1.034 3.247.022.472-.323 1.115-1.034 1.929-.733.836-1.282 1.168-1.648.997-.431-.193-1.175-.986-2.23-2.38-1.143-1.478-1.67-2.496-1.584-3.054.086-.578.592-1.307 1.519-2.186.926-.836 1.627-1.243 2.1-1.221.496.043 1.11.932 1.843 2.668zm17.453 3.119c-.668-.043-1.766 1.21-3.296 3.761-1.487 2.53-2.144 4.04-1.972 4.533.172.45 1.39.997 3.652 1.64 2.284.643 3.588.814 3.911.514.496-.471.399-2.325-.291-5.562-.689-3.215-1.357-4.844-2.004-4.886zm-4.395 2.7c1.874-3.215 3.35-4.769 4.428-4.662 1.357.129 2.445 2.358 3.264 6.688.798 4.307.733 6.686-.194 7.137-.797.407-2.553.16-5.268-.74-2.672-.879-4.137-1.629-4.396-2.25-.409-.922.313-2.98 2.166-6.173zM71.07 61.64c2.52-5.08 5.225-7.46 8.112-7.138 4.072.472 7.574 3.89 10.504 10.256 1.229 2.7 2.037 5.369 2.425 8.005.409 2.743.269 4.93-.42 6.558-.367.9-1.746 1.5-4.138 1.8-2.198.258-4.751.236-7.66-.064-2.93-.3-5.43-.825-7.499-1.575-2.284-.793-3.523-1.704-3.717-2.733-.97-4.886-.172-9.923 2.392-15.11zm15.19.45c-2.262-3.816-4.675-5.863-7.24-6.141-1.012-.107-2.111.45-3.296 1.672-1.789 1.843-3.233 4.5-4.332 7.973-1.163 3.772-1.508 7.383-1.034 10.834.172 1.329 3.394 2.336 9.664 3.022 6.27.707 9.675.44 10.214-.804.56-1.35.463-3.708-.291-7.073-.797-3.515-2.025-6.676-3.685-9.484zm47.61-2.573c-1.616-3.986-3.243-5.98-4.881-5.98-1.443 0-2.327 3.398-2.65 10.192-.323 6.751.086 10.46 1.228 11.124.754.428 2.176.192 4.267-.708 2.09-.9 3.221-1.746 3.393-2.54.841-3.793.388-7.823-1.357-12.088zm-9.05 3.665c.366-7.415 1.756-11.123 4.169-11.123 2.09 0 4.116 2.218 6.077 6.655 2.047 4.672 2.618 9.034 1.713 13.084-.323 1.372-1.918 2.594-4.784 3.665-2.779 1.05-4.546 1.254-5.301.611-.711-.578-1.239-2.165-1.583-4.758-.345-2.486-.442-5.197-.291-8.134zM40.978 67.94l5.656.354c2.198.386 3.459.89 3.782 1.511.582 1.179-.474 4.2-3.168 9.066-2.693 4.908-4.75 7.362-6.173 7.362-1.358 0-3.577-.675-6.658-2.025-3.254-1.415-4.88-2.572-4.88-3.472 0-.515.236-1.286.71-2.315L31.8 75.4c.107-.171.398-.279.872-.322.496-.02.69.054.582.226a20.426 20.426 0 00-1.39 3.118c-.301.879-.452 1.511-.452 1.897.086.579 1.476 1.468 4.17 2.668 2.628 1.18 4.449 1.78 5.462 1.8.948-.3 2.5-2.486 4.654-6.558 2.155-4.072 3.081-6.558 2.78-7.459-.173-.364-1.1-.707-2.78-1.028l-5.01-.354c-.215.022-.27-.214-.161-.707.107-.472.258-.718.452-.74zM18.967 98.482c-.668.322-1.433 1.211-2.295 2.669-.862 1.436-1.26 2.432-1.196 2.989.086.579 1.228 1.64 3.426 3.183 2.198 1.543 3.62 2.272 4.266 2.186.647-.085 1.649-1.564 3.006-4.436 1.358-2.872 1.864-4.49 1.52-4.855-.388-.386-1.8-.836-4.235-1.35-2.478-.514-3.975-.643-4.492-.386zm-3.588 1.833c1.013-1.672 1.972-2.744 2.877-3.215l5.591.257c3.103.579 4.913 1.275 5.43 2.09.474.75-.065 2.85-1.616 6.301-1.551 3.429-2.823 5.326-3.814 5.69-.754.3-2.532-.525-5.333-2.475-2.844-1.972-4.342-3.515-4.493-4.63-.107-.964.345-2.304 1.358-4.018zm106.467 15.592v.032c.044 1.779.916 3.076 2.619 3.89 1.529.729 2.564.847 3.102.354.561-.514.755-2.465.582-5.851-.172-3.451-.679-5.369-1.519-5.755-.452-.193-1.368.772-2.747 2.894-1.358 2.121-2.037 3.6-2.037 4.436zm.938-5.53c1.659-2.636 2.941-3.943 3.846-3.922 1.465.022 2.381 2.347 2.747 6.977.367 4.543.065 7.169-.905 7.876-.797.6-2.251.493-4.363-.321-2.413-.943-3.652-2.519-3.717-4.726-.022-1.329.776-3.29 2.392-5.884z" fill="#0D131A"/><path d="M136.973 78.485c-.022.836-.14 1.522-.356 2.058l-.646 1.06c-1.056 1.244-3.577 2.809-7.564 4.695-4.115 1.95-7.681 3.225-10.698 3.826-5.495 1.114-13.931 1.21-25.308.289-11.377-.9-18.563-2.25-21.558-4.051-.496-.322-.948-.847-1.358-1.575a7.2 7.2 0 01-.808-2.058c-.323-1.35-.345-2.111-.064-2.282.28-.172.721.45 1.325 1.864.366.836.754 1.48 1.163 1.93l1.293.964c2.413 1.307 8.867 2.464 19.36 3.472 11.356 1.093 19.911 1.06 25.664-.097 2.586-.535 5.656-1.575 9.212-3.118 3.297-1.436 5.764-2.744 7.401-3.922.604-.45 1.045-.911 1.326-1.383.301-.493.495-1.093.581-1.8.151-1.286.367-1.886.647-1.8.28.107.409.75.388 1.928zm-49-26.395c.755.687 1.487 1.523 2.198 2.508.754 1.03 1.293 1.962 1.616 2.797.474 1.2.496 1.876.065 2.026-.453.129-.959-.343-1.52-1.415a22.693 22.693 0 00-3.393-4.95c-1.25-1.437-1.745-2.273-1.487-2.508.28-.236 1.12.278 2.521 1.543zm36.426.226a15.19 15.19 0 00-.775 3.793c-.087 1.18-.356 1.758-.808 1.737-.453 0-.647-.58-.582-1.736.064-1.415.431-2.808 1.099-4.18.603-1.221 1.045-1.8 1.325-1.736.258.086.172.793-.259 2.122z" fill="#0D131A"/><path d="M110.21 86.008c-.474-.235-.851-.535-1.131-.9-.28-.343-.377-.59-.291-.74l1.002.033c.625.129 1.088.332 1.39.61.388.386.463.719.226.997-.237.279-.635.279-1.196 0zm11.023-1.608c-.453.558-.862.751-1.229.58-.366-.172-.388-.526-.064-1.061.237-.386.614-.729 1.131-1.03.474-.3.776-.396.905-.288.086.085.065.31-.065.675l-.678 1.125zM82.382 55.756c.194.064.28.375.258.932-.021.557-.118.782-.29.675-1.1-.686-2.134-.16-3.103 1.576-.906 1.586-1.53 3.782-1.875 6.59-.367 2.894-.323 5.594.13 8.102.538 2.85 1.54 4.886 3.005 6.108.172.129.065.322-.323.579-.388.236-.668.29-.84.16-1.767-1.307-2.985-3.471-3.653-6.493-.582-2.722-.646-5.637-.194-8.745.453-3.065 1.282-5.508 2.489-7.33 1.314-1.95 2.78-2.669 4.396-2.154zm44.636-1.929c.754-.579 1.627-.332 2.618.74.991 1.05 1.843 2.614 2.554 4.693 1.767 5.208 1.842 10.33.226 15.367-.065.193-.313.333-.743.418-.431.065-.625 0-.582-.192 1.314-4.073 1.357-8.691.129-13.857-.496-2.079-1.11-3.718-1.842-4.919-.733-1.221-1.401-1.671-2.004-1.35-.173.107-.313.01-.42-.29-.108-.278-.087-.481.064-.61zm-2.392 39.929c-.108-.171.118-.428.679-.771.538-.365.851-.461.937-.29 6.12 9.838 8.845 21.315 8.177 34.432-.064 1.222-1.002 2.486-2.812 3.794-1.723 1.243-3.857 2.282-6.399 3.118-6.163 2.015-10.796 1.94-13.899-.225-2.047-1.436-4.169-4.179-6.367-8.23-2.112-3.879-3.189-6.826-3.232-8.841 0-.193.302-.407.905-.643l.873-.096c.043 1.993 1.045 4.811 3.006 8.455 2.09 3.879 4.191 6.558 6.302 8.037 2.694 1.865 6.755 1.918 12.186.161 2.197-.707 4.05-1.586 5.559-2.636 1.573-1.072 2.381-2.058 2.424-2.958.625-12.26-2.155-23.362-8.339-33.307z" fill="#0D131A"/><path d="M106.558 114.139c-5.581 4.351-12.239 7.298-19.974 8.841-7.176 1.415-13.586 1.34-19.232-.225-.194-.064-.226-.397-.097-.997.108-.578.259-.846.453-.803 5.538 1.543 11.733 1.639 18.585.289 6.96-1.372 13.273-3.976 18.94-7.812 2.155-1.458 3.351-2.037 3.588-1.736.215.278-.539 1.093-2.263 2.443z" fill="#0D131A"/><path d="M91.464 120.633c.108-.171.604-.321 1.487-.45l1.164.096a28.44 28.44 0 01-6.238 7.17c-2.845 2.336-5.635 3.675-8.372 4.018l-9.696-.289c-2.543-.621-4.04-1.565-4.493-2.829-.065-.193.097-.514.485-.965.366-.471.582-.61.646-.417.431 1.2 1.757 2.1 3.976 2.7 2.413.664 5.376.782 8.888.354 2.047-.257 4.213-1.276 6.497-3.054a23.455 23.455 0 005.656-6.334zM16.252 15.344c.172-.128.592-.128 1.26 0a5.313 5.313 0 012.715 1.383c.172.128.183.332.032.61-.129.258-.28.322-.452.193-.453-.385-.894-.643-1.325-.771l-.614-.032.129 1.028.194 1.93c.065 2.914-.894 6.73-2.877 11.445-1.551 3.75-3.544 7.63-5.98 11.638C1.665 55.434-.027 66.365 4.26 75.56c1.616 3.472 3.933 6.312 6.95 8.52 2.671 1.928 5.235 2.979 7.692 3.15.194.021.162.268-.097.74-.237.492-.463.728-.679.707-2.866-.193-5.732-1.318-8.597-3.376-3.19-2.315-5.614-5.315-7.273-9.002-4.31-9.559-2.445-20.95 5.592-34.174 3.792-6.259 6.367-11.403 7.725-15.432 1.444-4.265 1.68-7.727.71-10.384-.193-.493-.204-.815-.032-.965z" fill="#0D131A"/><path d="M32.994 14.219c.151.15.151.386 0 .707-.15.343-.301.44-.452.29-1.616-1.672-3.717-3.012-6.303-4.019-2.435-.922-4.622-1.329-6.561-1.222-.905.065-1.39.183-1.455.354-.064.15.151.61.647 1.382 2.348 3.687 2.413 9.13.194 16.332-1.207 3.858-3.092 8.66-5.657 14.403-3.792 9.924-4.094 18.775-.905 26.555 1.315 3.215 3.135 5.937 5.463 8.166 2.154 2.08 4.482 3.483 6.981 4.212.172.043.043.257-.388.643-.43.364-.743.525-.937.482-6.615-1.929-11.151-6.837-13.607-14.724-2.565-8.166-1.94-16.868 1.874-26.105l2.845-6.398c1.357-3.13 2.38-5.862 3.07-8.198 2.112-7.03 1.864-12.206-.743-15.528-.884-1.136-1.293-1.865-1.228-2.186.064-.365.71-.622 1.939-.772 2.305-.3 4.891.054 7.757 1.06 3.038 1.072 5.527 2.594 7.466 4.566z" fill="#0D131A"/><path d="M30.732 8.014l1.196.965c.13.15.097.46-.097.932-.194.45-.356.6-.485.45l-.679-.804c-.388-.385-.679-.535-.872-.45-.173.086-.237.365-.194.836l.29 1.833c.044.171-.129.257-.517.257-.387-.022-.592-.129-.614-.322l-.323-1.993c-.086-1.093.086-1.811.517-2.154.366-.279.96-.128 1.778.45z" fill="#0D131A"/><path d="M80.313 17.08c4.632 3.708 7.067 8.188 7.304 13.439.022.214-.258.375-.84.482-.582.128-.873.086-.873-.129-.215-4.8-2.391-8.948-6.529-12.441-4.977-4.201-11.937-6.462-20.88-6.784-7.649-.279-13.122-1.125-16.419-2.54-2.672-1.136-4.6-3.054-5.785-5.754-.259-.58-.474-.89-.647-.933-.194-.064-.506.15-.937.643-1.444 1.586-2.295 3.526-2.553 5.82-.259 2.357.237 4.19 1.486 5.497 2.521 2.572 4.515 5.604 5.98 9.098.905 2.165 2.004 5.776 3.297 10.834 1.573 6.152 3.307 10.727 5.203 13.728 1.53 2.422 3.771 4.608 6.723 6.559.13.064.043.375-.258.932-.28.536-.507.75-.679.643-3.792-2.486-6.518-5.123-8.177-7.909-1.53-2.572-3.006-6.751-4.428-12.538-1.53-6.28-2.672-10.363-3.427-12.249-1.163-2.98-2.92-5.68-5.268-8.102-1.68-1.736-2.22-4.297-1.616-7.683.582-3.194 1.756-5.476 3.523-6.848.797-.622 1.358-.9 1.68-.836.324.064.637.514.938 1.35 1.293 3.344 3.146 5.551 5.56 6.623C45.405 9.161 50.684 9.9 58.527 10.2c9.222.322 16.484 2.615 21.785 6.88z" fill="#0D131A"/><path d="M89.75 18.688c4.117 3.515 5.894 7.32 5.334 11.413-.022.193-.345.278-.97.257-.625-.021-.926-.129-.905-.322.474-3.515-.926-6.815-4.202-9.902-3.77-3.536-9.017-5.55-15.74-6.044-.216-.021-.84-.278-1.875-.771-1.056-.515-1.487-.772-1.293-.772 8.318 0 14.868 2.047 19.652 6.14z" fill="#0D131A"/><path d="M38.715 101.536c1.164-4.522 2.79-7.908 4.88-10.159l23.951 6.945c2.09 7.93 2.295 15.485.614 22.665-1.013 4.265-2.596 8.069-4.751 11.413-1.164 1.822-3.534 3.022-7.11 3.6-3.772.622-7.402.247-10.893-1.125-2.543-.986-4.536-3.397-5.98-7.233-1.336-3.494-2.058-7.684-2.165-12.571-.108-4.779.377-9.291 1.454-13.535z" fill="#7CBEB3"/><path d="M43.854 110.378c.13-1.308 1.713-3.076 4.752-5.305 3.038-2.229 4.966-3.033 5.785-2.411.84.621 1.002 4.008.485 10.159-.517 6.151-1.304 9.27-2.36 9.355-.624.043-2.24-1.671-4.848-5.144-2.629-3.515-3.9-5.733-3.814-6.654z" fill="#006359"/><path d="M38.101 102.887c.108 9.194 2.187 16.857 6.238 22.986 3.879 5.937 8.727 9.206 14.545 9.806-2.37.6-4.934.793-7.692.579-5.517-.429-9.234-2.701-11.151-6.816-1.918-4.094-2.812-9.752-2.683-16.975l.743-9.58z" fill="#68A198"/><path d="M42.206 94.914c-2.801 4.78-4.073 11.627-3.814 20.543.28 9.281 2.241 15.25 5.883 17.907 2.478 1.801 5.796 2.519 9.955 2.154 4.008-.364 6.658-1.457 7.95-3.279 2.931-4.137 4.849-9.13 5.754-14.982.819-5.272.711-10.287-.323-15.045-.517-2.38-.582-3.655-.194-3.826.388-.172.905.9 1.551 3.215 1.336 4.822 1.606 10.041.808 15.656-.862 6.109-2.833 11.349-5.914 15.721-1.595 2.251-4.892 3.569-9.89 3.955-4.892.364-8.577-.354-11.055-2.154-1.788-1.308-3.264-3.622-4.428-6.944-1.12-3.173-1.8-6.816-2.036-10.931-.582-9.345.905-16.9 4.46-22.665 1.25-2.037 2.112-3.012 2.586-2.926.495.064.064 1.264-1.293 3.6z" fill="#0D131A"/><path d="M44.63 110.056c-.043.75 1.067 2.851 3.33 6.301 2.305 3.515 3.78 5.23 4.427 5.144.711-.107 1.293-3.011 1.746-8.712.452-5.723.344-8.82-.324-9.291-.624-.429-2.305.375-5.042 2.411-2.715 2.036-4.094 3.418-4.137 4.147zm-1.487-.321c.065-1.565 1.864-3.537 5.398-5.916 3.47-2.315 5.549-3.151 6.238-2.508 1.142 1.094 1.465 4.812.97 11.156-.518 6.344-1.433 9.892-2.748 10.642-.905.535-2.79-1.158-5.656-5.08-2.866-3.901-4.266-6.666-4.202-8.294z" fill="#0D131A"/><path d="M18.773 132.464c-.108-.321.301-.868 1.228-1.64.948-.771 1.66-1.125 2.133-1.061.862.108 1.455 1.04 1.778 2.797.302 1.629.323 2.562.065 2.797-.302.279-1.143.108-2.522-.514-1.486-.664-2.38-1.457-2.682-2.379zm9.632 2.411c-1.509-.686-2.263-1.371-2.263-2.057 0-.6.442-1.329 1.325-2.186.862-.858 1.52-1.179 1.972-.965.711.343 1.293 1.35 1.745 3.022.431 1.608.453 2.54.065 2.797-.41.279-1.358.075-2.844-.611zm5.075-1.961c-.152-1.114.258-2.143 1.227-3.086l1.52-1.093c.797.343 1.422 1.371 1.874 3.086.41 1.543.507 2.443.291 2.701l-2.553-.065c-1.509-.364-2.295-.878-2.36-1.543zm12.702 2.701c-.043-.558.15-1.158.581-1.801.518-.771 1.175-1.146 1.972-1.125.797.021 1.411.322 1.842.9.345.536.496 1.19.453 1.961-.043.708-.291 1.501-.744 2.379-.43.879-.775 1.319-1.034 1.319-.28 0-.84-.461-1.68-1.383-.884-.964-1.347-1.715-1.39-2.25zm6.431.707c-.064-1.05.227-1.918.873-2.604.517-.579 1.034-.868 1.551-.868.388 0 .84.289 1.358.868.517.6.84 1.2.97 1.8.086.386-.011 1.05-.291 1.993-.28 1.008-.614 1.608-1.002 1.801-.388.214-1.035-.022-1.94-.707-.97-.708-1.476-1.469-1.519-2.283zm6.368-.193c-.603-.643-.55-1.618.162-2.926.711-1.307 1.411-1.864 2.1-1.671.647.214 1.272 1.114 1.875 2.7.56 1.522.7 2.497.42 2.926-.258.386-.926.471-2.003.257-1.1-.236-1.95-.664-2.554-1.286zm10.989-5.851c-.086-.45.334-1.007 1.26-1.672.905-.643 1.563-.879 1.972-.707.711.321 1.174 1.221 1.39 2.7.215 1.436.13 2.24-.259 2.412-.388.171-1.152-.033-2.294-.611-1.229-.643-1.918-1.351-2.069-2.122zm8.76 2.186c-1.315-.45-2.08-.964-2.296-1.543-.194-.493.14-1.2 1.002-2.122.862-.9 1.487-1.264 1.875-1.093.754.321 1.282 1.147 1.584 2.475.258 1.158.28 1.951.064 2.38l-2.23-.097zm3.522-2.668c-.258-.515.108-1.254 1.1-2.219.969-.943 1.669-1.329 2.1-1.157.496.214.98.997 1.454 2.347.453 1.329.571 2.143.356 2.443l-2.457-.064c-1.422-.343-2.273-.793-2.553-1.35zm36.653 4.951c-.302-.3-.065-1.072.711-2.315.776-1.265 1.433-1.886 1.972-1.865.711.043 1.508.815 2.392 2.315.84 1.415 1.163 2.25.969 2.508-.237.3-1.153.396-2.747.289-1.659-.107-2.758-.418-3.297-.932zm7.046-1.769c-.301-.321-.108-1.125.582-2.411.668-1.286 1.25-1.907 1.745-1.864.474.042 1.142.793 2.004 2.25.819 1.436 1.153 2.315 1.002 2.636-.194.322-.98.44-2.359.354-1.465-.086-2.457-.407-2.974-.965zm5.398-2.957c-.345-.429-.237-1.243.323-2.444.539-1.157.97-1.714 1.293-1.671.56.064 1.25.771 2.069 2.121.797 1.329 1.098 2.165.905 2.508-.151.364-.83.504-2.037.418-1.271-.086-2.122-.397-2.553-.932z" fill="#fff"/><path d="M20.162 130.632l1.423 1.768c.948 1.307 1.476 2.325 1.583 3.054l-2.262-1.157c-1.487-.836-2.187-1.436-2.101-1.801.086-.364.345-.782.776-1.254l.581-.61zm7.273.128l1.228 1.511c.862 1.2 1.433 2.283 1.713 3.247-2.65-.921-4.008-1.832-4.072-2.732-.043-.558.13-1.061.517-1.511l.614-.515zm10.149 3.987c-1.379-.301-2.37-.601-2.974-.901-.69-.321-1.077-.718-1.163-1.189-.086-.407 0-.879.258-1.415l.42-.675c.582.279 1.294.965 2.134 2.058.71.943 1.153 1.65 1.325 2.122zm9.89-1.383l.324 1.961c.28 1.479.625 2.637 1.034 3.472l-1.228-1.06c-.797-.879-1.175-1.779-1.131-2.701.043-.643.204-1.115.484-1.415.216-.235.388-.321.517-.257zm5.818 1.029l1.228 1.993 1.616 2.958a8.56 8.56 0 01-1.81-.836c-1.206-.729-1.766-1.511-1.68-2.347.086-.814.215-1.35.388-1.607l.258-.161zm5.85-1.157l1.52 1.446c1.077 1.093 1.734 2.004 1.971 2.733l-2.004-.643c-1.336-.514-1.982-1.018-1.939-1.511l.259-1.447.194-.578zm11.895-4.405c.194.129.603.611 1.228 1.447.776 1.05 1.207 1.897 1.293 2.54l-2.327-1.093c-.603-.365-.916-.826-.938-1.383a1.674 1.674 0 01.356-1.125l.388-.386zm6.044.193l1.067.74c.819.75 1.53 1.736 2.133 2.957l-1.746-.482c-1.185-.429-1.842-.922-1.971-1.479-.13-.557-.086-1.007.13-1.35l.387-.386zm6.076-1.286l1.326.965c.948.835 1.594 1.703 1.939 2.604l-1.842-.258c-1.293-.321-2.058-.803-2.295-1.446-.13-.3-.076-.675.161-1.126.216-.428.453-.675.711-.739zm36.588 4.533c1.81.857 3.265 1.929 4.364 3.215l-2.424.032c-1.617-.086-2.457-.407-2.522-.964a3.311 3.311 0 01.227-1.64l.355-.643zm6.755-1.382c.367.107.981.428 1.843.964 1.163.707 1.885 1.383 2.165 2.026l-2.262-.097c-1.53-.171-2.306-.504-2.328-.997a2.607 2.607 0 01.259-1.382l.323-.514zm5.107-3.151l1.422.868c1.056.729 1.789 1.5 2.198 2.315l-1.68-.129c-1.164-.171-1.886-.461-2.166-.868s-.323-.9-.129-1.479l.355-.707z" fill="#DBDCDC"/><path d="M118.291 134.939c-.172-.621.173-1.618 1.034-2.989.862-1.394 1.606-2.101 2.231-2.122.625-.022 1.497.793 2.618 2.443 1.099 1.608 1.573 2.701 1.422 3.279-.129.515-1.336.675-3.62.483-2.284-.193-3.512-.558-3.685-1.094zm2.101-2.507c-.539.857-.754 1.479-.646 1.864.215.301.98.547 2.294.74 1.272.193 1.961.182 2.069-.032.108-.236-.183-.922-.873-2.058-.732-1.157-1.303-1.747-1.713-1.768-.237-.021-.614.397-1.131 1.254zm10.213.9c.13-.193-.15-.879-.84-2.058-.668-1.178-1.174-1.8-1.519-1.864-.259-.022-.625.428-1.099 1.35-.496.922-.7 1.565-.614 1.929.065.322.743.557 2.036.707l2.036-.064zm-2.197-5.369c.689.086 1.508 1.04 2.456 2.861.905 1.736 1.261 2.808 1.067 3.215-.194.429-1.218.558-3.071.386-1.896-.193-3.038-.557-3.426-1.093-.345-.471-.119-1.49.679-3.054.797-1.629 1.562-2.401 2.295-2.315zm3.684-.032c-.323.729-.388 1.329-.194 1.8.087.258.658.461 1.713.611l1.713-.096c.13-.215-.097-.836-.678-1.865-.582-1.093-1.088-1.629-1.519-1.607-.367.042-.712.428-1.035 1.157zm-.711-.804c.668-1.221 1.239-1.832 1.713-1.832.797 0 1.638.889 2.521 2.668.862 1.715 1.164 2.786.905 3.215l-2.876.096c-1.767-.214-2.726-.514-2.877-.9-.323-.836-.118-1.918.614-3.247zm-75.309 7.041c-.367-.429-.722-.622-1.067-.579-.496.022-.937.332-1.325.933-.388.578-.55 1.135-.485 1.671.065.493.485 1.051 1.26 1.672.755.579 1.261.815 1.52.707.172-.064.355-.375.549-.932.259-.643.345-1.243.259-1.8-.065-.665-.302-1.222-.712-1.672zm-3.362-.418c.733-1.072 1.53-1.575 2.392-1.511.625.043 1.185.364 1.68.964.496.601.809 1.34.938 2.219.15.857.086 1.789-.194 2.797-.28.986-.625 1.554-1.034 1.704-.517.193-1.347-.086-2.489-.836-1.228-.836-1.929-1.747-2.1-2.733-.13-.75.14-1.618.807-2.604zm-2.811.354c-.28-.386-.593-.601-.938-.643-.409-.043-.84.128-1.292.514-.474.386-.711.804-.711 1.254.021.557.334 1.221.937 1.993.538.729.937 1.093 1.196 1.093.237-.021.495-.332.775-.932.302-.6.464-1.2.485-1.801a2.237 2.237 0 00-.452-1.478zm-3.33-1.061c.798-.708 1.627-1.008 2.49-.901.71.086 1.325.472 1.842 1.158.495.686.722 1.447.678 2.282-.021.686-.29 1.565-.808 2.637-.56 1.114-1.045 1.693-1.454 1.736-.474.064-1.218-.483-2.23-1.64-1.078-1.2-1.638-2.218-1.68-3.054-.044-.793.344-1.533 1.163-2.218zm15.774.418c-.496-.686-.949-1.029-1.358-1.029-.41-.043-.819.257-1.228.9-.431.664-.593 1.286-.485 1.865.108.514.711.964 1.81 1.35 1.056.343 1.67.439 1.842.289.151-.128.184-.578.097-1.35-.086-.836-.312-1.511-.678-2.025zm-1.132-2.444c1.056.15 1.886 1.254 2.489 3.312.56 1.929.668 3.086.323 3.472l-3.038-.193c-1.81-.493-2.79-1.136-2.941-1.929-.173-.879.075-1.886.743-3.022.733-1.222 1.54-1.768 2.424-1.64zm-22.528.547c.538 2.057.592 3.215.161 3.472-.56.321-1.659.257-3.296-.193-1.703-.471-2.65-1.039-2.845-1.704-.258-.793.043-1.811.905-3.054.884-1.286 1.767-1.897 2.65-1.833 1.035.065 1.843 1.169 2.425 3.312zm-4.622 1.061c.064.45.657.857 1.778 1.221 1.077.343 1.734.408 1.971.193.172-.15.075-.868-.29-2.154-.389-1.371-.841-2.1-1.358-2.186-.431-.064-.905.225-1.422.868-.582.686-.809 1.372-.68 2.058zm-7.143.193c0 .493.593 1.007 1.778 1.543 1.163.514 1.831.654 2.003.418.194-.236.14-.933-.161-2.09-.323-1.243-.744-1.918-1.26-2.025-.496-.107-1.013.118-1.552.675-.496.514-.765.986-.808 1.414v.065zm-.032-2.54c.926-.857 1.745-1.222 2.456-1.093 1.077.193 1.853 1.318 2.327 3.375.453 1.951.463 3.108.032 3.473-.409.385-1.55.171-3.426-.643-1.96-.815-2.898-1.736-2.811-2.765.064-.729.538-1.511 1.422-2.347zm56.014-.932c.064.428.689.835 1.874 1.221 1.142.365 1.788.45 1.94.257.15-.193.053-.857-.292-1.993-.366-1.2-.765-1.822-1.196-1.865-.366-.042-.862.236-1.486.836-.625.622-.905 1.136-.84 1.544zm.031-2.154c1.12-1.072 2.004-1.501 2.65-1.286.82.3 1.488 1.318 2.005 3.054.495 1.65.582 2.625.258 2.925-.323.279-1.379.182-3.167-.289-1.832-.493-2.855-1.04-3.07-1.64-.26-.75.182-1.671 1.325-2.764zm-4.137 4.725c.948.322 1.498.408 1.649.258.15-.15.118-.761-.097-1.833-.237-1.136-.571-1.757-1.002-1.864-.431-.108-.938.128-1.52.707-.581.6-.818 1.125-.71 1.575.129.45.689.836 1.68 1.157zm.808-4.629c.711.171 1.304 1.104 1.778 2.797.43 1.65.474 2.733.13 3.247-.216.322-1.175.182-2.877-.418-1.767-.621-2.715-1.275-2.845-1.961-.15-.686.259-1.511 1.228-2.475.992-.986 1.854-1.383 2.586-1.19zm-7.337 4.565c.948.515 1.52.707 1.713.579.172-.107.194-.729.065-1.865-.151-1.2-.453-1.875-.905-2.025-.431-.15-.949 0-1.552.45-.582.429-.862.857-.84 1.286.021.514.528 1.039 1.519 1.575zm1.228-4.501c.905.193 1.444 1.254 1.616 3.183.151 1.822.043 2.861-.323 3.118-.41.258-1.422-.042-3.038-.9-1.638-.9-2.489-1.682-2.554-2.347-.064-.621.399-1.328 1.39-2.121 1.056-.815 2.026-1.126 2.91-.933zm-52.167 6.527c1.142.578 1.8.76 1.972.546.194-.214.161-.889-.097-2.025-.28-1.179-.614-1.822-1.002-1.929-.453-.15-1.002.021-1.649.514-.646.493-.97.975-.97 1.447.022.364.604.846 1.746 1.447zm1.163-4.855c.927.193 1.584 1.318 1.972 3.376.366 1.972.356 3.075-.032 3.311-.668.45-1.875.214-3.62-.707-1.724-.9-2.618-1.704-2.683-2.411-.086-.815.42-1.661 1.52-2.54 1.077-.858 2.025-1.2 2.843-1.029z" fill="#0D131A"/></svg>