<svg width="172" height="24" viewBox="0 0 172 24" fill="none" xmlns="http://www.w3.org/2000/svg"><path d="M52.568 0v8.964a8.991 8.991 0 100 12.06v2.807h2.652V0h-2.652zm-6.67 21.332a6.341 6.341 0 01-6.338-6.337 6.341 6.341 0 016.338-6.338 6.341 6.341 0 016.337 6.338c-.008 3.505-2.84 6.337-6.337 6.337zM24.847 5.97a8.991 8.991 0 000 17.98 8.991 8.991 0 008.99-8.99c.009-4.964-4.017-8.99-8.99-8.99zm0 15.243a6.25 6.25 0 01-6.252-6.252 6.25 6.25 0 016.252-6.252A6.25 6.25 0 0131.1 14.96a6.25 6.25 0 01-6.252 6.252z" fill="#C5CEE8"/><path fill-rule="evenodd" clip-rule="evenodd" d="M12.838 19.925l-.085.068a6.282 6.282 0 01-3.122 1.228 6.187 6.187 0 01-3.3-.563 6.245 6.245 0 01-2.841-8.631 6.328 6.328 0 012.328-2.414A6.176 6.176 0 019.06 8.75a6.21 6.21 0 013.215.93l.094.06 1.441-2.329-.093-.06a8.97 8.97 0 00-4.632-1.339 8.958 8.958 0 00-8 4.708A8.982 8.982 0 001.52 20a9.05 9.05 0 003.65 3.148 8.94 8.94 0 004.751.802 8.964 8.964 0 004.486-1.766l.086-.068-1.655-2.192z" fill="#C5CEE8"/><path d="M71.913 18.142c-.7 1.271-1.791 2.21-3.062 2.687a5.436 5.436 0 01-3.898-.009 5.913 5.913 0 01-3.054-2.703 6.497 6.497 0 01-.793-2.986h14.551l-.264-1.62c-.333-2.09-1.365-3.992-2.909-5.357a8.41 8.41 0 00-5.527-2.15 8.36 8.36 0 00-5.553 2.073c-1.56 1.348-2.618 3.233-2.976 5.323a9.314 9.314 0 001.006 6.073c1.007 1.834 2.602 3.24 4.512 3.974a8.257 8.257 0 005.894.009 8.743 8.743 0 004.52-3.958l.052-.094-2.457-1.356-.042.094zm-8.666-7.95c1.057-.912 2.362-1.398 3.693-1.381 1.33.009 2.636.512 3.685 1.433a6.16 6.16 0 011.518 2.081H61.669a6.323 6.323 0 011.578-2.132z" fill="#C5CEE8"/><path opacity=".7" fill-rule="evenodd" clip-rule="evenodd" d="M118.346 5.988h-8.853c-4.947 0-8.956 4.008-8.956 8.947 0 4.938 4.009 8.947 8.956 8.947h8.853v-3.514h-8.853a5.439 5.439 0 01-5.442-5.433 5.439 5.439 0 015.442-5.433h8.853V5.988z" fill="#fff"/><path fill-rule="evenodd" clip-rule="evenodd" d="M79.427 23.865V0h3.514v8.018a8.94 8.94 0 015.706-2.047c4.947 0 8.956 4.008 8.956 8.947 0 4.938-4.009 8.947-8.956 8.947a8.94 8.94 0 01-5.706-2.047v2.047h-3.514zm3.778-8.947a5.438 5.438 0 005.442 5.433 5.433 5.433 0 100-10.866 5.428 5.428 0 00-5.442 5.433zm78.94-5.467v7.77a6.628 6.628 0 006.627 6.627h2.627v-3.514h-2.627a3.114 3.114 0 01-3.113-3.113V9.45h5.757V5.936h-5.757V0h-3.514v5.936h-2.67v3.515h2.67zm-22.842 1.825c0-2.951 2.422-5.348 5.416-5.348h10.799V9.39h-10.799c-1.049 0-1.902.844-1.902 1.876 0 1.04.853 1.877 1.902 1.877h6.431c2.994 0 5.417 2.397 5.417 5.348 0 2.95-2.423 5.348-5.417 5.348h-11.736v-3.463h11.736c1.05 0 1.903-.845 1.903-1.877s-.853-1.876-1.903-1.876h-6.431c-2.994 0-5.416-2.397-5.416-5.348zm-11.847-1.774H118.5a5.439 5.439 0 00-5.442 5.433 5.439 5.439 0 005.442 5.433h8.956a5.439 5.439 0 005.442-5.433 5.439 5.439 0 00-5.442-5.433zM118.5 5.988c-4.947 0-8.956 4.008-8.956 8.947 0 4.938 4.009 8.947 8.956 8.947h8.956c4.947 0 8.956-4.009 8.956-8.947 0-4.939-4.009-8.947-8.956-8.947H118.5z" fill="#fff"/></svg>