<svg width="170" height="58" viewBox="0 0 170 58" fill="none" xmlns="http://www.w3.org/2000/svg"><path d="M14.02 29l.795 4.822a10.197 10.197 0 008.404 8.404l4.823.795-4.823.794a10.197 10.197 0 00-8.404 8.404l-.794 4.823-.795-4.823a10.197 10.197 0 00-8.404-8.404L0 43.021l4.822-.794a10.197 10.197 0 008.404-8.405L14.021 29z" fill="url(#paint0_linear_292_6767)"/><path d="M155.021 29l.794 4.822a10.198 10.198 0 008.404 8.404l4.823.795-4.823.794a10.198 10.198 0 00-8.404 8.404l-.794 4.823-.794-4.823a10.198 10.198 0 00-8.405-8.404L141 43.021l4.822-.794a10.197 10.197 0 008.405-8.405l.794-4.822z" fill="url(#paint1_linear_292_6767)"/><path d="M83.059 0l1.186 7.202a15.23 15.23 0 0012.552 12.552L104 20.942l-7.203 1.186A15.23 15.23 0 0084.245 34.68l-1.186 7.203-1.186-7.203A15.23 15.23 0 0069.32 22.127l-7.203-1.186 7.203-1.186A15.23 15.23 0 0081.873 7.201L83.059 0z" fill="#FBC418"/><defs><linearGradient id="paint0_linear_292_6767" x1="24.943" y1="29" x2="2.472" y2="33.733" gradientUnits="userSpaceOnUse"><stop stop-color="#FFD44F"/><stop offset="1" stop-color="#FF8A01"/></linearGradient><linearGradient id="paint1_linear_292_6767" x1="165.943" y1="29" x2="143.472" y2="33.733" gradientUnits="userSpaceOnUse"><stop stop-color="#FFD44F"/><stop offset="1" stop-color="#FF8A01"/></linearGradient></defs></svg>