<svg
  width="1920"
  height="706"
  viewBox="0 0 1920 706"
  fill="none"
  xmlns="http://www.w3.org/2000/svg"
>
  <mask
    id="mask0_2739_5981"
    style="mask-type: alpha"
    maskUnits="userSpaceOnUse"
    x="0"
    y="0"
    width="1920"
    height="706"
  >
    <rect width="1920" height="706" fill="#C20001" />
  </mask>
  <g mask="url(#mask0_2739_5981)">
    <rect width="1920" height="706" fill="#3F67BA" />
    <rect width="1920" height="706" fill="url(#paint0_radial_2739_5981)" />
    <circle
      opacity="0.5"
      cx="960"
      cy="622"
      r="192"
      stroke="url(#paint1_linear_2739_5981)"
      stroke-width="24"
    />
    <circle
      opacity="0.3"
      cx="960"
      cy="622"
      r="246"
      stroke="url(#paint2_linear_2739_5981)"
      stroke-width="24"
    />
    <circle
      opacity="0.1"
      cx="960"
      cy="622"
      r="301"
      stroke="url(#paint3_linear_2739_5981)"
      stroke-width="24"
    />
    <g opacity="0.1">
      <path
        fill-rule="evenodd"
        clip-rule="evenodd"
        d="M1515.11 522.384C1515.47 522.165 1515.78 521.706 1516.03 521.196C1519.31 522.518 1521.61 525.642 1521.61 529.284C1521.61 534.124 1517.55 538.047 1512.53 538.047C1510.47 538.047 1508.57 537.386 1507.05 536.272C1506.55 536.038 1506.13 535.814 1505.8 535.63C1505.28 535.346 1504.93 535.159 1504.72 535.188C1504.09 535.274 1504.27 535.842 1504.44 536.359C1504.55 536.709 1504.66 537.036 1504.49 537.171C1504.33 537.312 1503.78 536.796 1503.14 536.193C1502.26 535.372 1501.22 534.391 1500.73 534.686C1500.34 534.919 1500.71 535.551 1501.18 536.326L1501.21 536.383C1501.41 536.71 1501.63 537.044 1501.84 537.348C1502.26 537.966 1502.6 538.464 1502.43 538.548C1502.22 538.65 1500.8 537.701 1499.6 536.383C1499.13 535.875 1498.68 535.323 1498.27 534.811V534.811C1497.35 533.689 1496.59 532.755 1496.16 532.866C1495.65 532.999 1496.04 534.045 1496.61 535.051C1496.88 535.522 1497.19 536.001 1497.46 536.416V536.416C1497.89 537.062 1498.21 537.551 1498.09 537.612C1497.93 537.693 1496.55 536.362 1495.61 534.686C1495.05 533.69 1494.58 532.589 1494.2 531.698C1493.79 530.732 1493.49 530.012 1493.28 529.94C1492.58 529.688 1492.58 531.098 1492.86 533.133C1492.9 533.398 1492.96 533.677 1493.02 533.96C1495.75 542.663 1504.13 549 1514.04 549C1526.17 549 1536 539.519 1536 527.824C1536 516.693 1527.1 507.568 1515.78 506.713C1515.8 506.189 1516.07 505.149 1516.07 505.149C1516.07 505.149 1518.07 500.384 1518.18 499.365C1518.18 499.298 1518.19 499.224 1518.2 499.146C1518.32 498.046 1518.56 496 1516.77 496C1515.82 496 1515.37 496.699 1514.87 497.499V497.499C1514.67 497.806 1514.47 498.128 1514.22 498.43C1512.45 500.611 1509.48 503.334 1507.79 504.785C1504.22 507.851 1500.72 510.371 1498.68 511.841L1498.68 511.841C1497.75 512.509 1497.12 512.96 1496.93 513.147C1495.46 514.552 1490.22 523.875 1490.22 523.875C1490.22 523.875 1488.53 526.866 1489.13 527.473C1489.73 528.08 1491.18 527.941 1491.18 527.941C1491.18 527.941 1510.7 523.525 1512.45 523.177C1512.92 523.083 1513.25 523.029 1513.51 522.987C1514.2 522.875 1514.33 522.854 1515.11 522.384ZM1501.31 516.71C1500.26 517.692 1498.52 520.036 1498.52 520.036C1498.52 520.036 1501.75 520.232 1503.53 518.565C1505.31 516.898 1504.9 514.057 1504.9 514.057C1504.9 514.057 1502.35 515.728 1501.31 516.71Z"
        fill="white"
      />
      <path
        fill-rule="evenodd"
        clip-rule="evenodd"
        d="M606.447 331.055C606.437 331.028 606.458 331 606.487 331H623.941C623.959 331 623.976 331.012 623.981 331.029L631.998 356.131C632.007 356.158 631.986 356.185 631.957 356.185H620.338C620.324 356.185 620.313 356.198 620.317 356.211L626.981 378.947C626.994 378.991 626.935 379.02 626.906 378.983L601.009 345.605C600.987 345.578 601.008 345.539 601.043 345.539H611.588C611.603 345.539 611.613 345.525 611.608 345.511L606.447 331.055Z"
        fill="white"
      />
      <path
        fill-rule="evenodd"
        clip-rule="evenodd"
        d="M1463.56 229.474C1464.25 226.989 1462.9 221.881 1462.9 221.881C1462.9 221.881 1461.93 226.042 1460.41 227.58C1459.11 228.892 1457.51 229.802 1455.23 230.041C1457.1 229.152 1458.38 227.296 1458.38 225.151C1458.38 222.141 1455.85 219.7 1452.73 219.7C1449.61 219.7 1447.08 222.141 1447.08 225.151C1447.08 225.974 1447.27 226.753 1447.61 227.453C1445.65 225.926 1445.35 223.48 1445.35 223.48C1445.35 223.48 1443.17 232.36 1449.17 236.538C1455.18 240.715 1466.95 237.125 1466.95 237.125C1466.95 237.125 1450.11 248.75 1437.63 236.097C1426.88 225.198 1434.83 210.848 1434.83 210.848C1434.83 210.848 1434.48 212.179 1434.48 213.724C1434.48 215.27 1435.34 216.445 1435.34 216.445C1435.34 216.445 1437.88 211.178 1439.87 209.035C1441.74 207.008 1444.09 205.363 1446.12 203.943C1447.69 202.85 1449.06 201.889 1449.88 200.989C1454.4 196.031 1451.63 187 1451.63 187C1451.63 187 1456.72 191.406 1458.15 197.097C1458.69 199.267 1458.34 201.735 1458.03 203.942C1457.52 207.525 1457.11 210.421 1460.77 210.233C1466.68 209.929 1461.54 200.989 1461.54 200.989C1461.54 200.989 1474.95 207.902 1473.95 219.994C1472.94 232.086 1459.29 234.835 1459.29 234.835C1459.29 234.835 1462.86 231.959 1463.56 229.474Z"
        fill="white"
      />
      <path
        fill-rule="evenodd"
        clip-rule="evenodd"
        d="M526.427 511.848C522.368 512.051 517.721 512.051 516.142 511.848C503.824 510.263 494 501.457 494 489.553C494 477.65 504.074 468 516.5 468C528.926 468 539 477.65 539 489.553C539 495.089 536.821 500.138 533.24 503.955C532.267 504.992 533.601 505.719 534.957 506.457C536.287 507.182 537.637 507.918 536.852 508.967C535.988 510.124 531.3 511.604 526.427 511.848ZM513.336 486.859C513.336 488.719 511.762 490.227 509.82 490.227C507.879 490.227 506.305 488.719 506.305 486.859C506.305 485.612 507.013 484.523 508.065 483.941C508.125 485.562 509.489 486.859 511.162 486.859H513.336V486.859ZM524.232 483.941C524.172 485.562 522.808 486.859 521.135 486.859H518.961V486.859C518.961 488.719 520.535 490.227 522.477 490.227C524.418 490.227 525.992 488.719 525.992 486.859C525.992 485.612 525.284 484.523 524.232 483.941Z"
        fill="white"
      />
      <path
        fill-rule="evenodd"
        clip-rule="evenodd"
        d="M1331.22 441.872C1331.05 441.711 1330.88 441.547 1330.71 441.38C1321.76 432.554 1321.76 418.243 1330.71 409.417C1339.65 400.59 1368.16 400 1368.16 400C1368.16 400 1372.05 432.554 1363.1 441.38C1355.16 449.219 1342.83 450.096 1333.9 444.011L1341.1 435.303L1352.59 432.854L1343.21 431.928L1349.17 425.936L1355.96 424.469L1350.59 422.9L1355.96 413.344L1348.33 421.795L1345.38 417.69L1346.41 424.469L1341.1 430.385L1338.63 422.9V432.854L1331.22 441.872Z"
        fill="white"
      />
      <path
        fill-rule="evenodd"
        clip-rule="evenodd"
        d="M1587.47 335.712L1573.92 329L1574.33 344.003L1587.13 350.34L1587.47 335.712ZM1602.52 344.185L1602.35 329.062L1589.17 336.238L1589.33 350.518L1602.52 344.185ZM1602.51 360.362L1615.57 352.893L1602.51 346.022L1589.45 352.881L1602.51 360.362ZM1587.12 352.893L1574.07 360.362L1561 352.881L1574.06 346.022L1587.12 352.893ZM1602.72 376.557L1589.16 369.844L1589.51 355.216L1602.31 361.554L1602.72 376.557ZM1574.21 361.569L1574.39 376.693L1587.57 369.517L1587.41 355.237L1574.21 361.569Z"
        fill="white"
      />
      <path
        fill-rule="evenodd"
        clip-rule="evenodd"
        d="M460 345.548C460 355.187 452.165 363 442.5 363C432.835 363 425 355.187 425 345.548C425 336.174 441.553 310.429 442.461 309.024C442.482 308.992 442.518 308.992 442.539 309.024C443.447 310.429 460 336.174 460 345.548ZM439.583 357.405C430.702 355.46 432.222 345.613 432.222 345.613C432.222 345.613 434.647 351.557 440.532 353.483C446.416 355.408 453.528 352.584 453.528 352.584C453.528 352.584 448.463 359.35 439.583 357.405Z"
        fill="white"
      />
      <path
        fill-rule="evenodd"
        clip-rule="evenodd"
        d="M629.754 103C636.786 103 642.806 99.0545 645.291 93.4613C645.321 93.3931 635.313 96.0872 635.632 95.1348C635.775 94.7096 641.91 92.4468 646.38 89.8076C648.949 88.2906 650.132 85.0793 650.132 85.0793C650.132 85.0793 645.803 87.201 643.615 87.7391C639.206 88.8239 635.325 88.7071 635.325 88.594C635.325 88.3496 641.77 87.1133 650.727 81.6022C654.941 79.01 656.085 74.5449 656.085 74.5449C656.085 74.5449 651.453 77.3307 648.653 78.2504C642.012 80.4315 635.951 81.0887 635.951 80.7936C635.951 80.1617 641.285 78.6811 646.939 75.9149C649.879 74.4767 652.425 72.5977 655.376 70.508C660.204 67.0891 661 61 661 61C661 61 656.238 64.1008 653.914 65.1305C644.326 69.3796 635.859 71.6084 629.754 72.091C620.539 72.8194 613 79.3109 613 87.7391C613 96.1675 620.501 103 629.754 103Z"
        fill="white"
      />
    </g>
  </g>
  <defs>
    <radialGradient
      id="paint0_radial_2739_5981"
      cx="0"
      cy="0"
      r="1"
      gradientUnits="userSpaceOnUse"
      gradientTransform="translate(1058 781.564) rotate(-90) scale(653.05 1776)"
    >
      <stop stop-color="#05276D" />
      <stop offset="1" stop-color="#4C83F5" stop-opacity="0" />
    </radialGradient>
    <linearGradient
      id="paint1_linear_2739_5981"
      x1="1055"
      y1="334"
      x2="756"
      y2="729"
      gradientUnits="userSpaceOnUse"
    >
      <stop stop-color="#6F96E8" />
      <stop offset="1" stop-color="#6F96E8" stop-opacity="0" />
    </linearGradient>
    <linearGradient
      id="paint2_linear_2739_5981"
      x1="1080.15"
      y1="257.765"
      x2="702"
      y2="757.324"
      gradientUnits="userSpaceOnUse"
    >
      <stop stop-color="#6F96E8" />
      <stop offset="1" stop-color="#6F96E8" stop-opacity="0" />
    </linearGradient>
    <linearGradient
      id="paint3_linear_2739_5981"
      x1="1105.76"
      y1="180.118"
      x2="647"
      y2="786.172"
      gradientUnits="userSpaceOnUse"
    >
      <stop stop-color="#6F96E8" />
      <stop offset="1" stop-color="#6F96E8" stop-opacity="0" />
    </linearGradient>
  </defs>
</svg>
